<?xml version="1.0" encoding="UTF-8" standalone="no"?>
<!DOCTYPE svg  PUBLIC '-//W3C//DTD SVG 1.1//EN'  'http://www.w3.org/Graphics/SVG/1.1/DTD/svg11.dtd'>
<svg xmlns="http://www.w3.org/2000/svg">
<defs>
<font id="DaxOT-Regular" horiz-adv-x="518">
<font-face underline-position="-49" font-weight="400" descent="-200" panose-1="2 1 5 4 6 1 1 2 1 4" units-per-em="1000" unicode-range="U+0020-25CA" bbox="-123 -230 1090 905.04" x-height="539" underline-thickness="52" font-family="DaxOT" ascent="800" cap-height="688"/>
<missing-glyph horiz-adv-x="1000"/>
<glyph glyph-name=".notdef" horiz-adv-x="1000"/>
<glyph glyph-name=".null" horiz-adv-x="0"/>
<glyph glyph-name=".null" horiz-adv-x="0"/>
<glyph glyph-name="nonmarkingreturn" horiz-adv-x="1000"/>
<glyph glyph-name="space" horiz-adv-x="276" unicode=" "/>
<glyph glyph-name="exclam" horiz-adv-x="278" unicode="!" d="M201 51q0 -23 -17 -40t-40 -17t-40 17t-17 40t17 40t40 17t40 -17t17 -40zM195 688l-18 -460h-66l-18 460h102z"/>
<glyph glyph-name="quotedbl" horiz-adv-x="390" unicode='&quot;' d="M156 673l-19 -247h-48l-19 247q14 24 43 24t43 -24zM320 673l-19 -247h-48l-19 247q14 24 43 24t43 -24z"/>
<glyph glyph-name="numbersign" horiz-adv-x="652" unicode="#" d="M418 429h-162l-21 -157h162zM594 429h-119l-21 -157h112v-48h-119l-30 -224h-57l30 224h-162l-30 -224h-57l30 224h-113v48h120l21 157h-113v48h119l29 211h57l-29 -211h162l29 211h57l-29 -211h113v-48z"/>
<glyph glyph-name="dollar" horiz-adv-x="502" unicode="$" d="M441 181q0 -73 -46 -124t-124 -64v-121h-55v118q-100 2 -161 38l26 62q53 -32 135 -32q62 0 97 34t35 85q0 46 -30 78t-71 52q-42 21 -84 43q-41 22 -71 64t-30 105q0 71 44 118t120 58v116h56v-113q77 -3 134 -38l-25 -56q-51 31 -116 31q-57 1 -89 -29t-33 -82 q0 -34 16 -60q15 -26 41 -42t56 -30t62 -32q30 -16 56 -38t41 -58q16 -36 16 -83z"/>
<glyph glyph-name="percent" horiz-adv-x="850" unicode="%" d="M273 486q0 72 -18 121t-57 49t-57 -49t-18 -121q0 -71 18 -120t57 -49t57 49t18 120zM727 204q0 72 -18 121t-57 49t-57 -49t-18 -121q0 -71 18 -120t57 -49t57 49t18 120zM338 485q0 -89 -36 -151t-104 -62t-104 62t-36 151t36 151t104 62t104 -62t36 -151zM568 679 l-236 -688l-51 18l236 688zM792 203q0 -89 -36 -151t-104 -62t-104 62t-36 151t36 151t104 62t104 -62t36 -151z"/>
<glyph glyph-name="ampersand" horiz-adv-x="613" unicode="&amp;" d="M396 65v305q-134 -21 -194 -65t-60 -123q0 -62 41 -98t119 -36q52 0 94 17zM603 400l-120 -20v-351q-67 -39 -184 -39q-119 0 -185 50t-66 140q0 138 178 197v2q-139 34 -139 155q0 76 57 120t140 44q79 0 141 -36l-27 -53q-47 27 -104 27q-50 0 -84 -28t-35 -78 q0 -52 37 -84t95 -32q62 0 142 17l141 29z"/>
<glyph glyph-name="quotesingle" horiz-adv-x="226" unicode="&apos;" d="M156 673l-19 -247h-48l-19 247q14 24 43 24t43 -24z"/>
<glyph glyph-name="parenleft" horiz-adv-x="343" unicode="(" d="M314 -198l-46 -32q-208 227 -208 516t208 516l46 -32q-162 -210 -162 -484t162 -484z"/>
<glyph glyph-name="parenright" horiz-adv-x="343" unicode=")" d="M283 286q0 -289 -208 -516l-46 32q162 210 162 484t-162 484l46 32q208 -227 208 -516z"/>
<glyph glyph-name="asterisk" horiz-adv-x="430" unicode="*" d="M189 595q0 -19 -13 -32t-32 -13t-32 13t-13 32t13 32t32 13t32 -13t13 -32zM145 728q0 -19 -13 -32t-32 -13t-32 13t-13 32t13 32t32 13t32 -13t13 -32zM331 595q0 -19 -13 -32t-32 -13t-32 13t-13 32t13 32t32 13t32 -13t13 -32zM253 694q0 -16 -11 -27t-27 -11t-27 11 t-11 27t11 27t27 11t27 -11t11 -27zM260 813q0 -19 -13 -32t-32 -13t-32 13t-13 32t13 32t32 13t32 -13t13 -32zM375 728q0 -19 -13 -32t-32 -13t-32 13t-13 32t13 32t32 13t32 -13t13 -32z"/>
<glyph glyph-name="plus" d="M456 303h-163v-165h-68v165h-163v62h163v164h68v-164h163v-62z" unicode="+"/>
<glyph glyph-name="comma" horiz-adv-x="257" unicode="," d="M191 80l-120 -225h-54l77 225q19 29 55 29q35 0 42 -29z"/>
<glyph glyph-name="hyphen" horiz-adv-x="344" unicode="-" d="M285 299h-226v70h226v-70z"/>
<glyph glyph-name="period" horiz-adv-x="250" unicode="." d="M182 51q0 -23 -17 -40t-40 -17t-40 17t-17 40t17 40t40 17t40 -17t17 -40z"/>
<glyph glyph-name="slash" horiz-adv-x="446" unicode="/" d="M413 772l-342 -987l-73 27l342 988z"/>
<glyph glyph-name="zero" horiz-adv-x="536" unicode="0" d="M392 346q0 295 -124 295t-124 -295q0 -296 124 -296t124 296zM479 344q0 -70 -11 -130q-10 -60 -34 -112t-66 -82t-100 -30t-100 30t-66 82t-34 112q-11 60 -11 130t11 130q10 60 34 112t66 82t100 30t100 -30t66 -82t34 -112q11 -60 11 -130z"/>
<glyph glyph-name="one" horiz-adv-x="399" unicode="1" d="M296 0h-88v577q-65 -38 -176 -48l-12 53q162 23 215 106h61v-688z"/>
<glyph glyph-name="two" horiz-adv-x="484" unicode="2" d="M429 0h-409l248 356q59 84 59 153q-1 59 -35 91t-103 33q-69 0 -127 -29l-23 57q69 37 167 37q106 0 160 -49t54 -134q0 -79 -85 -193l-185 -249h279v-73z"/>
<glyph glyph-name="three" horiz-adv-x="476" unicode="3" d="M424 199q0 -93 -64 -151t-164 -58q-108 0 -175 35l24 61q57 -31 137 -31q68 1 108 39t41 105q0 73 -49 109t-127 36h-21v51q78 7 126 43t47 94q1 52 -33 77t-84 25q-70 0 -129 -28l-24 57q72 35 165 35q82 0 138 -41t56 -114q0 -59 -38 -98t-90 -59v-2q64 -16 110 -61 t46 -124z"/>
<glyph glyph-name="four" horiz-adv-x="502" unicode="4" d="M323 601h-2q-23 -54 -47 -95l-174 -296h220v288q0 52 3 103zM457 157h-56v-157h-81v157h-282v57l279 474h84v-478h56v-53z"/>
<glyph glyph-name="five" horiz-adv-x="476" unicode="5" d="M424 199q0 -87 -65 -148t-165 -61q-108 0 -173 35l24 61q55 -31 137 -31q68 -1 108 41t41 102q1 72 -43 114t-135 42q-44 0 -97 -8l37 342h312v-73h-250l-23 -211q33 4 56 4q112 0 174 -56t62 -153z"/>
<glyph glyph-name="six" horiz-adv-x="526" unicode="6" d="M390 204q0 158 -150 158q-46 0 -93 -18q-8 -40 -8 -96q1 -95 33 -147t97 -52q61 1 91 45t30 110zM475 203q1 -89 -53 -151t-154 -62q-101 0 -157 69t-56 191q0 170 95 286t260 162l19 -58q-103 -34 -168 -90t-102 -157q46 18 96 18q102 0 161 -55t59 -153z"/>
<glyph glyph-name="seven" horiz-adv-x="466" unicode="7" d="M446 688l-92 -214q-54 -126 -102 -262t-69 -212h-109l267 615h-317v73h422z"/>
<glyph glyph-name="eight" horiz-adv-x="524" unicode="8" d="M390 163q0 57 -32 93t-98 72q-64 -36 -96 -72t-32 -92q0 -52 38 -84t91 -32q57 0 93 32t36 83zM377 536q0 49 -32 79t-82 30q-51 0 -83 -30t-31 -79q1 -48 29 -78t87 -65q56 33 84 65t28 78zM472 163q0 -77 -60 -125t-150 -48q-86 0 -148 46t-62 126q0 70 39 112t113 84 q-64 37 -98 76t-34 101q0 71 55 117t135 46q82 0 136 -46t54 -117q0 -61 -34 -99t-97 -74q73 -40 112 -84t39 -115z"/>
<glyph glyph-name="nine" horiz-adv-x="526" unicode="9" d="M387 442q0 95 -33 147t-98 52q-60 0 -90 -45t-30 -111q0 -157 150 -157q48 0 93 17q8 40 8 97zM471 438q0 -170 -95 -286t-260 -162l-19 58q103 34 168 90t102 157q-46 -18 -96 -18q-102 0 -161 55t-59 153q-1 89 53 151t154 62q101 0 157 -69t56 -191z"/>
<glyph glyph-name="colon" horiz-adv-x="260" unicode=":" d="M192 356q0 -23 -17 -40t-40 -17t-40 17t-17 40t17 40t40 17t40 -17t17 -40zM192 51q0 -23 -17 -40t-40 -17t-40 17t-17 40t17 40t40 17t40 -17t17 -40z"/>
<glyph glyph-name="semicolon" horiz-adv-x="263" unicode=";" d="M198 80l-121 -225h-53l76 225q19 29 56 29q35 0 42 -29zM195 356q-1 -24 -17 -41t-40 -17t-41 17t-17 41t17 40t41 17q24 -1 40 -17t17 -40z"/>
<glyph glyph-name="less" d="M456 132l-394 173v58l394 172v-70l-317 -130v-2l317 -130v-71z" unicode="&lt;"/>
<glyph glyph-name="equal" d="M456 211h-394v62h394v-62zM456 394h-394v62h394v-62z" unicode="="/>
<glyph glyph-name="greater" d="M456 305l-394 -173v71l317 130v2l-317 130v70l394 -172v-58z" unicode="&gt;"/>
<glyph glyph-name="question" horiz-adv-x="406" unicode="?" d="M257 51q0 -23 -17 -40t-40 -17t-40 17t-17 40t17 40t40 17t40 -17t17 -40zM388 537q0 -61 -46 -103t-100 -58l-9 -148h-66l-9 175q55 13 97 45t42 84q1 47 -29 75t-88 28q-60 0 -104 -26l-26 52q61 37 144 37q90 0 142 -44t52 -117z"/>
<glyph glyph-name="at" horiz-adv-x="912" unicode="@" d="M576 449q-31 19 -74 19q-78 0 -126 -72t-48 -170q0 -87 42 -136t124 -49q8 0 22 1zM860 372q0 -98 -45 -185t-131 -143t-192 -55q-110 0 -170 66t-59 168q0 123 68 209t178 86q81 0 136 -45l-64 -420q87 25 151 111t64 208q0 120 -68 198t-198 78q-128 0 -224 -64 t-143 -159q-47 -96 -47 -206q0 -155 91 -258t255 -103q214 0 363 134l33 -40q-160 -146 -397 -146q-189 0 -299 116t-110 292q0 93 34 180q34 86 94 154t152 109t201 41q155 0 241 -94t86 -232z"/>
<glyph glyph-name="A" horiz-adv-x="590" unicode="A" d="M393 263l-80 260q-12 38 -20 89h-2q-8 -49 -21 -89l-81 -260h204zM571 0h-97l-64 208h-239l-65 -208h-87l232 688h87z"/>
<glyph glyph-name="B" horiz-adv-x="562" unicode="B" d="M422 185q0 80 -50 117t-156 37h-52v-276q34 -15 96 -15q74 0 118 34t44 103zM400 519q0 124 -145 124q-52 0 -91 -15v-243h52q96 0 140 33t44 101zM514 186q0 -100 -68 -148t-181 -48q-116 0 -188 37v634q76 37 180 37q111 0 171 -48t60 -125q0 -63 -36 -103t-96 -56v-2 q66 -13 112 -62t46 -116z"/>
<glyph glyph-name="C" horiz-adv-x="479" unicode="C" d="M447 28q-57 -38 -135 -38q-85 0 -145 51q-61 51 -87 129t-26 174t26 174t87 129q60 51 145 51q78 0 135 -38l-23 -56q-45 29 -101 29q-59 0 -99 -43t-58 -106q-16 -63 -16 -139q0 -77 17 -139t57 -104t98 -43q56 0 101 29z"/>
<glyph glyph-name="D" horiz-adv-x="596" unicode="D" d="M448 346q0 142 -48 216t-143 75q-56 0 -89 -14v-555q33 -14 89 -14q95 0 143 75t48 217zM542 344q0 -166 -76 -260t-211 -94q-103 0 -178 37v634q75 37 178 37q135 0 211 -94t76 -260z"/>
<glyph glyph-name="E" horiz-adv-x="442" unicode="E" d="M396 0h-319v688h319v-62h-227v-240h204v-61h-204v-263h227v-62z"/>
<glyph glyph-name="F" horiz-adv-x="434" unicode="F" d="M394 626h-225v-240h203v-61h-203v-325h-92v688h317v-62z"/>
<glyph glyph-name="G" horiz-adv-x="594" unicode="G" d="M523 27q-68 -37 -176 -37q-129 0 -211 92t-82 262q0 162 81 258t220 96q91 0 156 -38l-26 -57q-56 30 -125 30q-100 -1 -156 -79t-56 -214q0 -138 56 -212t140 -73q56 0 90 14v259h-127v58h216v-359z"/>
<glyph glyph-name="H" horiz-adv-x="597" unicode="H" d="M520 0h-92v325h-259v-325h-92v688h92v-302h259v302h92v-688z"/>
<glyph glyph-name="I" horiz-adv-x="252" unicode="I" d="M172 0h-92v688h92v-688z"/>
<glyph glyph-name="J" horiz-adv-x="252" unicode="J" d="M172 74q0 -116 -56 -194t-160 -100v65q60 23 92 81t32 143v619h92v-614z"/>
<glyph glyph-name="K" horiz-adv-x="540" unicode="K" d="M522 0h-110l-240 356h-2v-356h-90v688h90v-319h2l238 319h101l-255 -321z"/>
<glyph glyph-name="L" horiz-adv-x="411" unicode="L" d="M379 0h-299v688h92v-626h207v-62z"/>
<glyph glyph-name="M" horiz-adv-x="782" unicode="M" d="M729 0h-88l-52 515q-3 26 -5 81h-2q-7 -40 -19 -81l-147 -515h-59l-145 515q-10 37 -19 81h-2q-1 -38 -5 -81l-54 -515h-79l82 688h97l140 -496q11 -38 18 -85h2q7 47 18 85l140 496h98z"/>
<glyph glyph-name="N" horiz-adv-x="647" unicode="N" d="M570 0h-80l-300 513q-16 26 -37 74h-2q3 -54 3 -85v-502h-77v688h96l284 -489q18 -30 37 -72h2q-3 55 -3 82v479h77v-688z"/>
<glyph glyph-name="O" horiz-adv-x="606" unicode="O" d="M459 346q1 82 -13 144t-50 104t-93 41q-57 1 -93 -41t-50 -104t-13 -144q-1 -82 13 -144t50 -104t93 -42t93 42t50 104t13 144zM552 344q0 -158 -62 -256t-187 -98t-187 98t-62 256t62 256t187 98t187 -98t62 -256z"/>
<glyph glyph-name="P" horiz-adv-x="526" unicode="P" d="M396 492q0 151 -147 151q-43 0 -82 -14v-287q30 -5 67 -5q86 0 124 42t38 113zM485 490q0 -92 -63 -150t-188 -59q-29 0 -67 6v-287h-90v661q76 37 172 37q117 0 177 -56t59 -152z"/>
<glyph glyph-name="Q" horiz-adv-x="604" unicode="Q" d="M458 346q0 82 -14 144t-49 104q-36 42 -93 41q-57 1 -93 -41q-35 -42 -49 -104t-14 -144t14 -144t49 -104q36 -42 93 -42t93 42q35 42 49 104t14 144zM550 344q0 -114 -32 -199t-97 -124l121 -151l-69 -57l-108 186q-29 -9 -63 -9q-124 0 -186 98t-62 256t62 256t186 98 t186 -98t62 -256z"/>
<glyph glyph-name="R" horiz-adv-x="546" unicode="R" d="M400 501q0 142 -149 142q-45 0 -83 -14v-274q22 -5 63 -5q77 0 123 42t46 109zM512 0h-105l-131 225q-43 75 -108 91v-316h-89v661q77 37 170 37q115 0 177 -50t63 -145q0 -73 -53 -125t-139 -64v-2q36 -29 69 -80z"/>
<glyph glyph-name="S" horiz-adv-x="484" unicode="S" d="M431 181q0 -83 -60 -137t-158 -54q-105 0 -169 38l27 62q54 -32 135 -32q62 0 96 33t35 85q1 46 -29 78t-72 52t-83 43t-71 65t-30 105q0 81 57 130t149 49q83 0 147 -38l-24 -56q-50 31 -116 31q-58 0 -90 -29t-32 -81q0 -33 16 -59q15 -26 41 -42t56 -31t62 -32 q30 -17 56 -39t41 -58q16 -36 16 -83z"/>
<glyph glyph-name="T" horiz-adv-x="442" unicode="T" d="M412 626h-145v-626h-92v626h-145v62h382v-62z"/>
<glyph glyph-name="U" horiz-adv-x="585" unicode="U" d="M508 196q0 -90 -59 -148t-157 -59q-98 1 -156 59t-59 148v492h92v-492q0 -62 37 -98t90 -37q53 1 90 37t37 98v492h85v-492z"/>
<glyph glyph-name="V" horiz-adv-x="531" unicode="V" d="M509 688l-203 -688h-80l-202 688h97l127 -484q14 -54 21 -101h2q10 62 20 101l130 484h88z"/>
<glyph glyph-name="W" horiz-adv-x="818" unicode="W" d="M783 688l-161 -688h-81l-117 480q-7 31 -13 79h-2q-6 -46 -14 -79l-116 -480h-82l-161 688h94l101 -497q7 -34 12 -84h2q7 51 15 84l119 497h71l115 -497q9 -36 14 -84h2q7 51 14 84l103 497h85z"/>
<glyph glyph-name="X" horiz-adv-x="526" unicode="X" d="M502 0h-103l-137 291h-2l-142 -291h-94l191 355l-173 333h98l123 -262h2l129 262h89l-172 -324z"/>
<glyph glyph-name="Y" horiz-adv-x="501" unicode="Y" d="M486 688l-189 -383v-305h-92v305l-188 383h99l138 -311h2l142 311h88z"/>
<glyph glyph-name="Z" horiz-adv-x="444" unicode="Z" d="M411 0h-387l263 626h-247v62h364l-260 -626h267v-62z"/>
<glyph glyph-name="bracketleft" horiz-adv-x="324" unicode="[" d="M278 -215h-200v1000h200v-51h-121v-897h121v-52z"/>
<glyph glyph-name="backslash" horiz-adv-x="446" unicode="\" d="M448 -188l-73 -27l-342 987l72 28z"/>
<glyph glyph-name="bracketright" horiz-adv-x="324" unicode="]" d="M246 -215h-200v52h121v897h-121v51h200v-1000z"/>
<glyph glyph-name="asciicircum" horiz-adv-x="482" unicode="^" d="M426 505l-39 -36l-146 151l-146 -151l-39 36l146 175q15 18 39 18t39 -18z"/>
<glyph glyph-name="underscore" horiz-adv-x="500" unicode="_" d="M510 -127h-520v52h520v-52z"/>
<glyph glyph-name="grave" horiz-adv-x="242" unicode="`" d="M174 599h-51l-113 131q12 21 43 21q29 0 48 -15z"/>
<glyph glyph-name="a" horiz-adv-x="499" unicode="a" d="M346 59v245q-110 -13 -164 -47t-54 -102q0 -55 33 -85t96 -29q55 0 89 18zM428 28q-71 -38 -179 -38q-97 0 -151 42t-54 121q0 47 22 83t64 58t94 36q52 13 122 20v33q0 107 -115 107q-72 0 -135 -34l-21 54q76 39 164 39q89 1 139 -43t50 -132v-346z"/>
<glyph glyph-name="b" horiz-adv-x="527" unicode="b" d="M389 275q0 103 -38 161t-107 58q-44 0 -86 -20v-414q31 -14 76 -14q80 0 118 61t37 168zM477 280q0 -134 -64 -212t-182 -78q-95 0 -160 38v757h87v-262q46 24 108 24q95 -1 153 -73t58 -194z"/>
<glyph glyph-name="c" horiz-adv-x="415" unicode="c" d="M380 25q-46 -35 -121 -35q-97 0 -153 78t-56 202q0 125 56 202t153 77q75 0 121 -35l-21 -52q-35 27 -85 27q-62 -1 -98 -61t-36 -156q0 -94 36 -156t98 -62q50 0 84 26z"/>
<glyph glyph-name="d" horiz-adv-x="527" unicode="d" d="M369 63v420q-35 10 -68 10q-85 0 -124 -63t-39 -162q0 -100 37 -160t116 -60q51 0 78 15zM456 28q-62 -38 -170 -38q-114 0 -175 72t-61 197t62 205t174 81q43 0 83 -11v251h87v-757z"/>
<glyph glyph-name="e" horiz-adv-x="524" unicode="e" d="M389 323q-3 171 -123 171q-65 0 -100 -56t-35 -150v-5zM474 285l-339 -50q7 -85 49 -133t117 -49q78 0 131 32l23 -57q-66 -38 -163 -38q-114 0 -178 74t-64 207q0 128 58 203t160 75q98 0 152 -64t54 -190v-10z"/>
<glyph glyph-name="f" horiz-adv-x="310" unicode="f" d="M283 484h-94v-484h-88v484h-62v55h62v76q1 79 43 125t121 46q7 0 18 -1v-57h-6q-88 0 -88 -110v-79h94v-55z"/>
<glyph glyph-name="g" horiz-adv-x="527" unicode="g" d="M369 71v410q-30 15 -77 15q-154 0 -154 -232q0 -215 147 -215q47 0 84 22zM456 512v-520q0 -102 -54 -160t-154 -57q-99 0 -166 38l26 58q57 -31 125 -31q70 0 103 38t33 104v36q-41 -24 -107 -24q-98 0 -155 72t-57 195q0 132 64 210t183 78q97 0 159 -37z"/>
<glyph glyph-name="h" horiz-adv-x="534" unicode="h" d="M463 0h-88v380q0 108 -110 108q-56 0 -106 -29v-459h-88v785h88v-274q54 33 124 33q94 0 137 -47t43 -114v-383z"/>
<glyph glyph-name="i" horiz-adv-x="242" unicode="i" d="M165 0h-88v539h88v-539zM174 691q0 -21 -16 -35t-37 -14t-37 14t-16 35t16 35t37 14t37 -14t16 -35z"/>
<glyph glyph-name="j" horiz-adv-x="246" unicode="j" d="M178 691q0 -21 -16 -35t-37 -14t-37 14t-16 35t16 35t37 14t37 -14t16 -35zM169 539v-467q0 -236 -187 -293v60q54 33 76 84t23 139v477h88z"/>
<glyph glyph-name="k" horiz-adv-x="489" unicode="k" d="M481 0h-105l-212 275h-2v-275h-86v785h86v-499h2l200 253h97l-216 -256z"/>
<glyph glyph-name="l" horiz-adv-x="242" unicode="l" d="M165 0h-88v785h88v-785z"/>
<glyph glyph-name="m" horiz-adv-x="834" unicode="m" d="M763 0h-87v376q0 117 -111 117q-62 0 -105 -51v-442h-87v390q0 103 -114 103q-59 0 -101 -18v-475h-87v511q86 38 185 38q108 0 162 -63q58 63 155 63q96 -1 143 -47t47 -127v-375z"/>
<glyph glyph-name="n" horiz-adv-x="534" unicode="n" d="M463 0h-88v372q0 62 -28 92t-93 29q-53 0 -95 -18v-475h-88v511q83 38 183 38q209 0 209 -177v-372z"/>
<glyph glyph-name="o" horiz-adv-x="526" unicode="o" d="M388 272q0 99 -30 160t-95 61t-95 -61t-30 -160q0 -100 30 -162t95 -61q65 -1 95 61t30 162zM476 270q0 -128 -54 -204t-159 -76t-159 76t-54 204q0 127 54 203t159 76t159 -76t54 -203z"/>
<glyph glyph-name="p" horiz-adv-x="527" unicode="p" d="M389 274q0 221 -154 221q-48 0 -77 -14v-422q29 -11 65 -11q82 0 124 58t42 168zM477 279q0 -135 -64 -211t-171 -76q-47 0 -84 13v-220h-87v727q71 37 167 37q114 -1 176 -73t63 -197z"/>
<glyph glyph-name="q" horiz-adv-x="527" unicode="q" d="M369 70v411q-30 15 -77 15q-154 0 -154 -232q0 -216 147 -216q47 0 84 22zM456 -215h-87v231q-43 -24 -107 -24q-96 0 -154 72t-58 195q0 134 64 212t183 78q97 0 159 -37v-727z"/>
<glyph glyph-name="r" horiz-adv-x="322" unicode="r" d="M302 546l-20 -66q-24 9 -55 9q-41 0 -68 -14v-475h-88v511q76 38 184 38q32 0 47 -3z"/>
<glyph glyph-name="s" horiz-adv-x="418" unicode="s" d="M370 149q0 -67 -52 -113t-132 -46q-90 0 -145 37l25 56q50 -31 111 -31q47 0 75 26t29 67q1 35 -23 59t-58 38t-66 30q-34 16 -58 48t-23 82q1 63 47 105t119 42q79 0 135 -37l-23 -52q-48 31 -100 31q-43 0 -67 -24t-24 -61q0 -25 12 -43q12 -17 34 -29q20 -12 44 -22 t50 -24q24 -12 44 -28t34 -46q12 -28 12 -65z"/>
<glyph glyph-name="t" horiz-adv-x="321" unicode="t" d="M283 4q-21 -9 -53 -9q-59 -1 -94 35t-35 101v353h-62v55h62v124l88 27v-151h94v-55h-94v-353q0 -75 67 -75q16 0 27 4v-56z"/>
<glyph glyph-name="u" horiz-adv-x="524" unicode="u" d="M453 30q-75 -40 -185 -40q-197 0 -197 176v373h88v-376q0 -113 110 -113q61 0 96 18v471h88v-509z"/>
<glyph glyph-name="v" horiz-adv-x="492" unicode="v" d="M465 539l-178 -539h-80l-178 539h94l112 -386q8 -28 14 -70h2q6 42 14 70l117 386h83z"/>
<glyph glyph-name="w" horiz-adv-x="773" unicode="w" d="M740 539l-154 -539h-77l-109 387q-8 28 -12 62h-2q-4 -38 -11 -62l-109 -387h-77l-154 539h91l94 -388q7 -25 11 -66h2q5 38 13 66l109 388h75l106 -388q8 -29 12 -66h2q5 37 12 66l96 388h82z"/>
<glyph glyph-name="x" horiz-adv-x="475" unicode="x" d="M450 0h-97l-117 220h-2l-119 -220h-90l167 279l-150 260h93l104 -198h2l107 198h84l-149 -254z"/>
<glyph glyph-name="y" horiz-adv-x="492" unicode="y" d="M465 539l-250 -754h-94l89 215l-181 539h94l113 -391q10 -34 12 -67h2q4 30 15 67l117 391h83z"/>
<glyph glyph-name="z" horiz-adv-x="417" unicode="z" d="M378 0h-348l227 484h-210v55h323l-225 -484h233v-55z"/>
<glyph glyph-name="braceleft" horiz-adv-x="357" unicode="{" d="M311 -215h-18q-90 0 -136 48t-46 136v183q0 50 -15 76t-53 33v51q38 6 53 33t15 77v179q0 88 46 136t136 48h18v-51q-65 0 -93 -33t-28 -99v-178q0 -57 -16 -89t-57 -47v-2q41 -15 57 -47t16 -89v-182q0 -65 28 -98t93 -33v-52z"/>
<glyph glyph-name="bar" horiz-adv-x="228" unicode="|" d="M150 -215h-72v1000h72v-1000z"/>
<glyph glyph-name="braceright" horiz-adv-x="357" unicode="}" d="M314 261q-38 -7 -53 -33t-15 -76v-183q0 -88 -46 -136t-137 -48h-17v52q66 0 94 33t27 98v182q0 57 16 89t56 47v2q-40 15 -56 47t-16 89v178q1 66 -27 99t-94 33v51h17q91 0 137 -48t46 -136v-179q0 -50 15 -77t53 -33v-51z"/>
<glyph glyph-name="asciitilde" horiz-adv-x="482" unicode="~" d="M426 395q-8 -52 -36 -83t-74 -31q-31 0 -75 32t-73 32q-47 0 -62 -61l-50 18q8 52 36 83t74 31q31 0 75 -32t73 -32q46 0 62 62z"/>
<glyph glyph-name="uni00A0" horiz-adv-x="276" unicode=" "/>
<glyph glyph-name="exclamdown" horiz-adv-x="278" unicode="¡" d="M195 -215h-102l18 460h66zM201 422q0 -23 -17 -40t-40 -17t-40 17t-17 40t17 40t40 17t40 -17t17 -40z"/>
<glyph glyph-name="cent" horiz-adv-x="434" unicode="¢" d="M385 135q-36 -27 -104 -30v-105h-52v107q-79 11 -125 73t-45 165q1 99 47 161t123 75v107h52v-105q63 -1 104 -29l-20 -49q-36 21 -81 21q-69 0 -103 -48t-34 -131q0 -84 35 -133t101 -49q46 0 81 21z"/>
<glyph glyph-name="sterling" horiz-adv-x="528" unicode="£" d="M473 0h-415q107 126 107 241q0 39 -11 85h-94v60h77q-21 67 -21 111q0 93 56 147t153 54q88 0 147 -37l-22 -57q-47 28 -113 28q-64 0 -99 -38t-35 -103q0 -45 15 -105h174v-60h-161q7 -42 7 -83t-16 -89t-41 -81h292v-73z"/>
<glyph glyph-name="currency" horiz-adv-x="554" unicode="¤" d="M379 345q0 66 -29 108t-73 42t-73 -42t-29 -108q0 -67 29 -109t73 -42t73 42t29 109zM502 157l-40 -39l-70 70q-48 -50 -115 -50t-115 50l-70 -70l-40 39l75 75q-27 51 -27 112q0 60 27 111l-75 75l40 39l69 -70q48 50 116 50t116 -50l69 70l40 -39l-75 -75 q27 -51 27 -111q0 -61 -27 -112z"/>
<glyph glyph-name="yen" horiz-adv-x="618" unicode="¥" d="M558 688l-124 -239h101v-44h-123l-60 -115h183v-44h-183v-246h-86v246h-183v44h183l-60 115h-123v44h101l-124 239h96l155 -337h2l160 337h85z"/>
<glyph glyph-name="brokenbar" horiz-adv-x="228" unicode="¦" d="M150 -215h-72v395h72v-395zM150 390h-72v395h72v-395z"/>
<glyph glyph-name="section" horiz-adv-x="532" unicode="§" d="M396 216q0 28 -10 50t-31 42q-23 20 -39 34q-16 12 -50 33t-47 30q-83 -51 -83 -119q0 -22 8 -44t17 -34q7 -12 31 -32t34 -26t42 -28q33 -21 39 -25q89 49 89 119zM472 224q0 -97 -116 -162q68 -58 68 -127q0 -67 -52 -113t-130 -46q-88 0 -145 38l24 58q46 -32 111 -32 q48 0 76 27t28 68q0 37 -28 67t-70 54q-40 24 -80 52t-70 71q-28 43 -28 97q0 98 114 164q-53 50 -53 111q0 63 47 105t121 42q77 0 131 -37l-23 -55q-47 32 -100 32q-45 0 -69 -24t-23 -63q-1 -35 27 -64t67 -53t79 -49t66 -67q28 -42 28 -94z"/>
<glyph glyph-name="dieresis" horiz-adv-x="242" unicode="¨" d="M85 654q0 -18 -13 -31t-31 -13t-31 13t-13 31t13 31t31 13t31 -13t13 -31zM245 654q0 -18 -13 -31t-31 -13t-31 13t-13 31t13 31t31 13t31 -13t13 -31z"/>
<glyph glyph-name="copyright" horiz-adv-x="822" unicode="©" d="M505 165q-32 -21 -91 -21q-82 0 -128 58t-46 145q0 85 46 144t128 59q57 0 91 -21l-16 -37q-25 14 -65 14q-60 0 -90 -46t-31 -113q-1 -65 31 -111t90 -46q36 0 64 14zM707 345q-1 126 -87 216t-209 90t-209 -90t-87 -216q1 -126 87 -216t209 -90t209 90t87 216zM767 344 q-1 -147 -105 -251t-251 -104t-251 104t-105 251q1 147 105 251t251 104t251 -104t105 -251z"/>
<glyph glyph-name="ordfeminine" horiz-adv-x="378" unicode="ª" d="M246 369v158q-70 -8 -105 -30t-35 -66q0 -74 84 -74q34 0 56 12zM309 344q-49 -26 -124 -26q-67 0 -105 28t-37 83q0 115 203 134v21q0 69 -75 69q-48 0 -91 -23l-16 41q52 27 115 27q62 0 96 -30t34 -91v-233z"/>
<glyph glyph-name="guillemotleft" horiz-adv-x="482" unicode="«" d="M234 139l-52 -31l-130 226l130 226l52 -31l-113 -195zM420 139l-52 -31l-130 226l130 226l52 -31l-113 -195z"/>
<glyph glyph-name="logicalnot" d="M456 138h-68v165h-326v62h394v-227z" unicode="¬"/>
<glyph glyph-name="uni00AD" horiz-adv-x="344" unicode="­" d="M285 299h-226v70h226v-70z"/>
<glyph glyph-name="registered" horiz-adv-x="822" unicode="®" d="M484 440q0 80 -83 80q-25 0 -45 -7v-156q10 -2 35 -2q41 0 67 24t26 61zM556 151h-68l-72 129q-23 42 -60 52v-181h-58v383q42 22 103 22q69 0 105 -30t36 -85q0 -41 -30 -71t-77 -38v-2q18 -15 39 -47zM707 345q-1 126 -87 216t-209 90t-209 -90t-87 -216 q1 -126 87 -216t209 -90t209 90t87 216zM767 344q-1 -147 -105 -251t-251 -104t-251 104t-105 251q1 147 105 251t251 104t251 -104t105 -251z"/>
<glyph glyph-name="macron" horiz-adv-x="242" unicode="¯" d="M246 616h-250v53h250v-53z"/>
<glyph glyph-name="degree" horiz-adv-x="426" unicode="°" d="M310 549q0 41 -28 71t-69 29q-41 1 -69 -29t-28 -71t28 -70t69 -29t69 29t28 70zM362 549q0 -61 -44 -105t-105 -44t-105 44t-44 105t44 105t105 44t105 -44t44 -105z"/>
<glyph glyph-name="plusminus" d="M456 0h-394v59h394v-59zM456 318h-163v-162h-68v162h-163v59h163v162h68v-162h163v-59z" unicode="±"/>
<glyph glyph-name="twosuperior" horiz-adv-x="338" unicode="²" d="M282 476h-261l152 214q34 48 34 88q0 69 -80 69q-42 0 -76 -17l-17 42q48 23 107 23q68 1 102 -29t34 -82q0 -45 -54 -117l-104 -138h163v-53z"/>
<glyph glyph-name="threesuperior" horiz-adv-x="338" unicode="³" d="M288 596q0 -57 -41 -92t-105 -35q-68 0 -112 22l18 44q34 -18 83 -18q41 -1 65 21t23 59q1 41 -29 61t-77 19h-12v37q47 4 75 24t29 53q0 57 -69 57q-42 0 -79 -16l-17 41q47 22 106 22q55 0 90 -25t35 -70q0 -64 -75 -92v-2q92 -25 92 -110z"/>
<glyph glyph-name="acute" horiz-adv-x="242" unicode="´" d="M232 730l-113 -131h-51l73 137q19 15 48 15q31 0 43 -21z"/>
<glyph glyph-name="mu" horiz-adv-x="524" unicode="µ" d="M453 30q-71 -40 -175 -40q-71 0 -119 29v-234h-88v754h88v-458q45 -32 108 -32q62 0 98 19v471h88v-509z"/>
<glyph glyph-name="paragraph" horiz-adv-x="604" unicode="¶" d="M526 -215h-80v838q-56 17 -120 17q-24 0 -53 -4v-851h-80v508q-71 19 -109 72t-39 121q0 75 42 124q43 48 103 68t136 20q113 0 200 -37v-876z"/>
<glyph glyph-name="periodcentered" horiz-adv-x="250" unicode="·" d="M182 333q0 -23 -17 -40t-40 -17t-40 17t-17 40t17 40t40 17t40 -17t17 -40z"/>
<glyph glyph-name="cedilla" horiz-adv-x="242" unicode="¸" d="M244 -124q0 -38 -44 -58t-124 -20q-29 0 -74 5l18 36q28 -3 48 -3q47 0 77 10t30 30q0 32 -71 32q-21 0 -53 -2l16 34q36 3 62 3q115 0 115 -67z"/>
<glyph glyph-name="onesuperior" horiz-adv-x="338" unicode="¹" d="M238 476h-69v336q-37 -20 -104 -26l-9 39q100 13 134 63h48v-412z"/>
<glyph glyph-name="ordmasculine" horiz-adv-x="392" unicode="º" d="M277 509q0 143 -81 143t-81 -143t81 -143t81 143zM343 508q1 -82 -37 -136t-110 -54t-110 54t-37 136q-1 82 37 136t110 54t110 -54t37 -136z"/>
<glyph glyph-name="guillemotright" horiz-adv-x="482" unicode="»" d="M244 334l-130 -226l-52 31l113 195l-113 195l52 31zM430 334l-130 -226l-52 31l113 195l-113 195l52 31z"/>
<glyph glyph-name="onequarter" horiz-adv-x="806" unicode="¼" d="M655 351h-2q-16 -36 -29 -58l-96 -163h125v159q0 26 2 62zM238 276h-69v336q-37 -20 -104 -26l-9 39q100 13 134 63h48v-412zM596 677l-315 -689l-49 23l315 689zM748 91h-35v-91h-61v91h-172v40l170 281h63v-282h35v-39z"/>
<glyph glyph-name="onehalf" horiz-adv-x="806" unicode="½" d="M238 276h-69v336q-37 -20 -104 -26l-9 39q100 13 134 63h48v-412zM556 677l-314 -689l-49 23l314 689zM750 0h-261l152 214q34 48 34 88q0 69 -80 69q-41 0 -75 -17l-17 42q48 23 106 23q68 1 102 -29t34 -82q0 -47 -53 -117l-105 -138h163v-53z"/>
<glyph glyph-name="threequarters" horiz-adv-x="806" unicode="¾" d="M655 351h-2q-12 -29 -29 -58l-96 -163h125v159q0 26 2 62zM288 396q0 -57 -41 -92t-105 -35q-68 0 -112 22l18 44q34 -18 83 -18q41 -1 65 21t23 59q1 41 -29 61t-77 19h-12v37q47 4 75 24t29 53q0 57 -69 57q-42 0 -79 -16l-17 41q47 22 106 22q55 0 90 -25t35 -70 q0 -64 -75 -92v-2q92 -25 92 -110zM603 677l-315 -689l-49 23l315 689zM748 91h-35v-91h-61v91h-172v40l170 281h63v-282h35v-39z"/>
<glyph glyph-name="questiondown" horiz-adv-x="406" unicode="¿" d="M388 -188q-61 -37 -144 -37q-90 -1 -142 43t-52 118q0 60 46 102t100 59l8 148h67l9 -175q-55 -14 -97 -46t-42 -83q-1 -47 29 -75t88 -28q61 0 105 26zM295 422q-1 -24 -17 -40t-40 -17q-24 1 -41 17t-17 40t17 40t41 17q24 -1 40 -17t17 -40z"/>
<glyph glyph-name="Agrave" horiz-adv-x="590" unicode="À" d="M327 747h-51l-113 131q12 21 43 21q28 0 48 -15zM393 263l-80 260q-12 38 -20 89h-2q-8 -49 -21 -89l-81 -260h204zM571 0h-97l-64 208h-239l-65 -208h-87l232 688h87z"/>
<glyph glyph-name="Aacute" horiz-adv-x="590" unicode="Á" d="M426 878l-113 -131h-51l73 137q19 15 48 15q31 0 43 -21zM393 263l-80 260q-12 38 -20 89h-2q-8 -49 -21 -89l-81 -260h204zM571 0h-97l-64 208h-239l-65 -208h-87l232 688h87z"/>
<glyph glyph-name="Acircumflex" horiz-adv-x="590" unicode="Â" d="M421 768l-30 -26l-97 82l-97 -82l-30 26l93 100q14 15 34 15t34 -15zM393 263l-80 260q-12 38 -20 89h-2q-8 -49 -21 -89l-81 -260h204zM571 0h-97l-64 208h-239l-65 -208h-87l232 688h87z"/>
<glyph glyph-name="Atilde" horiz-adv-x="590" unicode="Ã" d="M423 834q-14 -81 -77 -81q-23 1 -53 21t-48 20q-32 0 -40 -39l-40 13q14 80 77 80q24 0 54 -20t48 -21q30 0 39 40zM393 263l-80 260q-12 38 -20 89h-2q-8 -49 -21 -89l-81 -260h204zM571 0h-97l-64 208h-239l-65 -208h-87l232 688h87z"/>
<glyph glyph-name="Adieresis" horiz-adv-x="590" unicode="Ä" d="M419 803q0 -18 -13 -31t-31 -13t-31 13t-13 31t13 31t31 13t31 -13t13 -31zM259 803q0 -18 -13 -31t-31 -13t-31 13t-13 31t13 31t31 13t31 -13t13 -31zM393 263l-80 260q-12 38 -20 89h-2q-8 -49 -21 -89l-81 -260h204zM571 0h-97l-64 208h-239l-65 -208h-87l232 688h87 z"/>
<glyph glyph-name="Aring" horiz-adv-x="590" unicode="Å" d="M339 824q0 18 -13 32t-32 14t-32 -14t-13 -32t13 -32t32 -14t32 14t13 32zM375 824q1 -34 -23 -58t-58 -23q-34 -1 -58 23t-23 58q-1 34 23 58t58 23q34 1 58 -23t23 -58zM393 263l-80 260q-12 38 -20 89h-2q-8 -49 -21 -89l-81 -260h204zM571 0h-97l-64 208h-239 l-65 -208h-87l232 688h87z"/>
<glyph glyph-name="AE" horiz-adv-x="752" unicode="Æ" d="M404 263l-58 261q-7 32 -15 88h-2q-15 -52 -29 -88l-103 -261h207zM726 0h-264l-46 208h-241l-83 -208h-88l290 688h371v-62h-264l59 -240h204v-61h-190l65 -263h187v-62z"/>
<glyph glyph-name="Ccedilla" horiz-adv-x="479" unicode="Ç" d="M374 -124q0 -38 -44 -58t-124 -20q-29 0 -74 5l18 36q28 -3 48 -3q47 0 77 10t30 30q0 32 -71 32q-21 0 -53 -2l16 34q36 3 62 3q115 0 115 -67zM447 28q-57 -38 -135 -38q-85 0 -145 51q-61 51 -87 129t-26 174t26 174t87 129q60 51 145 51q78 0 135 -38l-23 -56 q-45 29 -101 29q-59 0 -99 -43t-58 -106q-16 -63 -16 -139q0 -77 17 -139t57 -104t98 -43q56 0 101 29z"/>
<glyph glyph-name="Egrave" horiz-adv-x="442" unicode="È" d="M281 747h-51l-113 131q12 21 43 21q28 0 48 -15zM396 0h-319v688h319v-62h-227v-240h204v-61h-204v-263h227v-62z"/>
<glyph glyph-name="Eacute" horiz-adv-x="442" unicode="É" d="M357 878l-113 -131h-51l73 137q20 15 48 15q31 0 43 -21zM396 0h-319v688h319v-62h-227v-240h204v-61h-204v-263h227v-62z"/>
<glyph glyph-name="Ecircumflex" horiz-adv-x="442" unicode="Ê" d="M358 768l-30 -26l-97 82l-97 -82l-30 26l93 100q13 15 34 15t34 -15zM396 0h-319v688h319v-62h-227v-240h204v-61h-204v-263h227v-62z"/>
<glyph glyph-name="Edieresis" horiz-adv-x="442" unicode="Ë" d="M358 803q0 -18 -13 -31t-31 -13t-31 13t-13 31t13 31t31 13t31 -13t13 -31zM198 803q0 -18 -13 -31t-31 -13t-31 13t-13 31t13 31t31 13t31 -13t13 -31zM396 0h-319v688h319v-62h-227v-240h204v-61h-204v-263h227v-62z"/>
<glyph glyph-name="Igrave" horiz-adv-x="252" unicode="Ì" d="M167 747h-51l-113 131q12 21 43 21q28 0 48 -15zM172 0h-92v688h92v-688z"/>
<glyph glyph-name="Iacute" horiz-adv-x="252" unicode="Í" d="M249 878l-113 -131h-51l73 137q20 15 48 15q31 0 43 -21zM172 0h-92v688h92v-688z"/>
<glyph glyph-name="Icircumflex" horiz-adv-x="252" unicode="Î" d="M253 769l-30 -26l-97 82l-97 -82l-30 26l93 100q14 15 34 15t34 -15zM171 0h-92v688h92v-688z"/>
<glyph glyph-name="Idieresis" horiz-adv-x="252" unicode="Ï" d="M250 803q0 -18 -13 -31t-31 -13t-31 13t-13 31t13 31t31 13t31 -13t13 -31zM90 803q0 -18 -13 -31t-31 -13t-31 13t-13 31t13 31t31 13t31 -13t13 -31zM172 0h-92v688h92v-688z"/>
<glyph glyph-name="Eth" horiz-adv-x="604" unicode="Ð" d="M457 352q0 287 -195 287q-53 0 -86 -13v-238h116v-55h-116v-265q33 -14 88 -14q101 0 147 75t46 223zM550 351q0 -169 -72 -265t-210 -96q-111 0 -183 37v306h-64v55h64v272q74 38 181 38q136 0 210 -91t74 -256z"/>
<glyph glyph-name="Ntilde" horiz-adv-x="647" unicode="Ñ" d="M454 834q-14 -81 -77 -81q-23 1 -53 21t-48 20q-32 0 -40 -39l-40 13q14 80 77 80q23 0 53 -20t49 -21q30 0 39 40zM570 0h-80l-300 513q-16 26 -37 74h-2q3 -54 3 -85v-502h-77v688h96l284 -489q18 -30 37 -72h2q-3 55 -3 82v479h77v-688z"/>
<glyph glyph-name="Ograve" horiz-adv-x="606" unicode="Ò" d="M345 748h-51l-113 131q12 21 43 21q28 0 48 -15zM459 346q1 82 -13 144t-50 104t-93 41q-57 1 -93 -41t-50 -104t-13 -144q-1 -82 13 -144t50 -104t93 -42t93 42t50 104t13 144zM552 344q0 -158 -62 -256t-187 -98t-187 98t-62 256t62 256t187 98t187 -98t62 -256z"/>
<glyph glyph-name="Oacute" horiz-adv-x="606" unicode="Ó" d="M426 879l-113 -131h-51l73 137q19 15 48 15q31 0 43 -21zM459 346q1 82 -13 144t-50 104t-93 41q-57 1 -93 -41t-50 -104t-13 -144q-1 -82 13 -144t50 -104t93 -42t93 42t50 104t13 144zM552 344q0 -158 -62 -256t-187 -98t-187 98t-62 256t62 256t187 98t187 -98 t62 -256z"/>
<glyph glyph-name="Ocircumflex" horiz-adv-x="606" unicode="Ô" d="M430 768l-30 -26l-97 82l-97 -82l-30 26l93 100q13 15 34 15t34 -15zM459 346q1 82 -13 144t-50 104t-93 41q-57 1 -93 -41t-50 -104t-13 -144q-1 -82 13 -144t50 -104t93 -42t93 42t50 104t13 144zM552 344q0 -158 -62 -256t-187 -98t-187 98t-62 256t62 256t187 98 t187 -98t62 -256z"/>
<glyph glyph-name="Otilde" horiz-adv-x="606" unicode="Õ" d="M432 834q-14 -81 -77 -81q-23 1 -53 21t-48 20q-32 0 -40 -39l-40 13q14 80 77 80q23 0 53 -20t49 -21q30 0 39 40zM459 346q1 82 -13 144t-50 104t-93 41q-57 1 -93 -41t-50 -104t-13 -144q-1 -82 13 -144t50 -104t93 -42t93 42t50 104t13 144zM552 344q0 -158 -62 -256 t-187 -98t-187 98t-62 256t62 256t187 98t187 -98t62 -256z"/>
<glyph glyph-name="Odieresis" horiz-adv-x="606" unicode="Ö" d="M428 803q0 -18 -13 -31t-31 -13t-31 13t-13 31t13 31t31 13t31 -13t13 -31zM268 803q0 -18 -13 -31t-31 -13t-31 13t-13 31t13 31t31 13t31 -13t13 -31zM459 346q1 82 -13 144t-50 104t-93 41q-57 1 -93 -41t-50 -104t-13 -144q-1 -82 13 -144t50 -104t93 -42t93 42 t50 104t13 144zM552 344q0 -158 -62 -256t-187 -98t-187 98t-62 256t62 256t187 98t187 -98t62 -256z"/>
<glyph glyph-name="multiply" d="M456 183l-44 -43l-153 153l-153 -153l-44 43l153 153l-153 154l44 43l153 -153l153 153l44 -43l-153 -154z" unicode="×"/>
<glyph glyph-name="Oslash" horiz-adv-x="606" unicode="Ø" d="M463 347q0 113 -25 182l-250 -409q40 -67 115 -67q85 0 123 81t37 213zM420 570q-40 70 -117 70q-160 0 -160 -293q0 -117 26 -187zM552 344q0 -158 -62 -256t-187 -98q-95 0 -157 62l-56 -92l-31 20l62 102q-67 95 -67 262q0 158 62 256t187 98q97 0 157 -62l57 92 l31 -20l-63 -102q67 -95 67 -262z"/>
<glyph glyph-name="Ugrave" horiz-adv-x="585" unicode="Ù" d="M346 747h-51l-113 131q12 21 43 21q29 0 48 -15zM508 196q0 -90 -59 -148t-157 -59q-98 1 -156 59t-59 148v492h92v-492q0 -62 37 -98t90 -37q53 1 90 37t37 98v492h85v-492z"/>
<glyph glyph-name="Uacute" horiz-adv-x="585" unicode="Ú" d="M410 878l-113 -131h-51l73 137q19 15 48 15q31 0 43 -21zM508 196q0 -90 -59 -148t-157 -59q-98 1 -156 59t-59 148v492h92v-492q0 -62 37 -98t90 -37q53 1 90 37t37 98v492h85v-492z"/>
<glyph glyph-name="Ucircumflex" horiz-adv-x="585" unicode="Û" d="M422 768l-30 -26l-97 82l-97 -82l-30 26l93 100q13 15 34 15t34 -15zM508 196q0 -90 -59 -148t-157 -59q-98 1 -156 59t-59 148v492h92v-492q0 -62 37 -98t90 -37q53 1 90 37t37 98v492h85v-492z"/>
<glyph glyph-name="Udieresis" horiz-adv-x="585" unicode="Ü" d="M420 803q0 -18 -13 -31t-31 -13t-31 13t-13 31t13 31t31 13t31 -13t13 -31zM260 803q0 -18 -13 -31t-31 -13t-31 13t-13 31t13 31t31 13t31 -13t13 -31zM508 196q0 -90 -59 -148t-157 -59q-98 1 -156 59t-59 148v492h92v-492q0 -62 37 -98t90 -37q53 1 90 37t37 98v492 h85v-492z"/>
<glyph glyph-name="Yacute" horiz-adv-x="501" unicode="Ý" d="M380 878l-113 -131h-51l73 137q19 15 48 15q31 0 43 -21zM486 688l-189 -383v-305h-92v305l-188 383h99l138 -311h2l142 311h88z"/>
<glyph glyph-name="Thorn" horiz-adv-x="533" unicode="Þ" d="M395 374q0 151 -146 151q-48 0 -82 -13v-289q38 -4 67 -4q161 0 161 155zM484 372q0 -92 -62 -150t-188 -59q-27 0 -67 4v-167h-90v688h90v-120q41 12 82 12q115 0 175 -55t60 -153z"/>
<glyph glyph-name="germandbls" horiz-adv-x="566" unicode="ß" d="M520 147q0 -71 -50 -113t-127 -42q-59 0 -110 29l18 57q40 -23 83 -23q46 1 72 25t26 67q0 35 -26 65t-58 50t-58 57q-26 36 -27 81q1 53 35 88t91 46q3 36 3 57q0 61 -27 103t-83 42q-64 0 -93 -56t-29 -144v-536h-87v531q0 117 52 191t156 73q93 -1 145 -59t52 -144 q0 -53 -13 -90q-119 -8 -119 -98q0 -26 18 -49t44 -42t50 -41q26 -22 44 -53q18 -32 18 -72z"/>
<glyph glyph-name="agrave" horiz-adv-x="499" unicode="à" d="M302 599h-51l-113 131q12 21 43 21q29 0 48 -15zM346 59v245q-110 -13 -164 -47t-54 -102q0 -55 33 -85t96 -29q55 0 89 18zM428 28q-71 -38 -179 -38q-97 0 -151 42t-54 121q0 47 22 83t64 58t94 36q52 13 122 20v33q0 107 -115 107q-72 0 -135 -34l-21 54q76 39 164 39 q89 1 139 -43t50 -132v-346z"/>
<glyph glyph-name="aacute" horiz-adv-x="499" unicode="á" d="M381 730l-113 -131h-51l73 137q20 15 48 15q31 0 43 -21zM346 59v245q-110 -13 -164 -47t-54 -102q0 -55 33 -85t96 -29q55 0 89 18zM428 28q-71 -38 -179 -38q-97 0 -151 42t-54 121q0 47 22 83t64 58t94 36q52 13 122 20v33q0 107 -115 107q-72 0 -135 -34l-21 54 q76 39 164 39q89 1 139 -43t50 -132v-346z"/>
<glyph glyph-name="acircumflex" horiz-adv-x="499" unicode="â" d="M378 619l-30 -26l-97 82l-97 -82l-30 26l93 100q13 15 34 15t34 -15zM346 59v245q-110 -13 -164 -47t-54 -102q0 -55 33 -85t96 -29q55 0 89 18zM428 28q-71 -38 -179 -38q-97 0 -151 42t-54 121q0 47 22 83t64 58t94 36q52 13 122 20v33q0 107 -115 107q-72 0 -135 -34 l-21 54q76 39 164 39q89 1 139 -43t50 -132v-346z"/>
<glyph glyph-name="atilde" horiz-adv-x="499" unicode="ã" d="M377 685q-14 -81 -77 -81q-23 0 -53 20t-48 21q-32 0 -40 -39l-40 13q14 80 77 80q24 -1 54 -21t48 -20q30 0 39 40zM346 59v245q-110 -13 -164 -47t-54 -102q0 -55 33 -85t96 -29q55 0 89 18zM428 28q-71 -38 -179 -38q-97 0 -151 42t-54 121q0 47 22 83t64 58t94 36 q52 13 122 20v33q0 107 -115 107q-72 0 -135 -34l-21 54q76 39 164 39q89 1 139 -43t50 -132v-346z"/>
<glyph glyph-name="adieresis" horiz-adv-x="499" unicode="ä" d="M379 654q0 -18 -13 -31t-31 -13t-31 13t-13 31t13 31t31 13t31 -13t13 -31zM219 654q0 -18 -13 -31t-31 -13t-31 13t-13 31t13 31t31 13t31 -13t13 -31zM346 59v245q-110 -13 -164 -47t-54 -102q0 -55 33 -85t96 -29q55 0 89 18zM428 28q-71 -38 -179 -38q-97 0 -151 42 t-54 121q0 47 22 83t64 58t94 36q52 13 122 20v33q0 107 -115 107q-72 0 -135 -34l-21 54q76 39 164 39q89 1 139 -43t50 -132v-346z"/>
<glyph glyph-name="aring" horiz-adv-x="499" unicode="å" d="M299 679q0 19 -13 33t-32 13q-19 1 -32 -13t-13 -33t13 -33t32 -13q19 -1 32 13t13 33zM335 679q1 -33 -23 -57t-58 -24t-58 24t-23 57q-1 33 23 57t58 24t58 -24t23 -57zM346 59v245q-110 -13 -164 -47t-54 -102q0 -55 33 -85t96 -29q55 0 89 18zM428 28 q-71 -38 -179 -38q-97 0 -151 42t-54 121q0 47 22 83t64 58t94 36q52 13 122 20v33q0 107 -115 107q-72 0 -135 -34l-21 54q76 39 164 39q89 1 139 -43t50 -132v-346z"/>
<glyph glyph-name="ae" horiz-adv-x="805" unicode="æ" d="M344 155v149q-108 -12 -162 -46t-55 -103q1 -51 29 -83t81 -31q43 0 75 33t32 81zM671 323q-3 171 -123 171q-60 0 -98 -52t-37 -154v-5zM755 285l-338 -50q6 -85 48 -133t118 -49q75 0 130 32l23 -57q-65 -38 -160 -38q-125 0 -182 99q-46 -99 -162 -99q-86 0 -137 43 t-51 120q0 168 300 197v33q0 107 -117 107q-67 0 -131 -34l-21 54q76 39 163 39q121 0 154 -95q25 48 68 72t91 23q98 -1 151 -65t53 -192v-7z"/>
<glyph glyph-name="ccedilla" horiz-adv-x="415" unicode="ç" d="M328 -124q0 -38 -44 -58t-124 -20q-29 0 -74 5l18 36q28 -3 48 -3q47 0 77 10t30 30q0 32 -71 32q-21 0 -53 -2l16 34q36 3 62 3q115 0 115 -67zM380 25q-46 -35 -121 -35q-97 0 -153 78t-56 202q0 125 56 202t153 77q75 0 121 -35l-21 -52q-35 27 -85 27q-62 -1 -98 -61 t-36 -156q0 -94 36 -156t98 -62q50 0 84 26z"/>
<glyph glyph-name="egrave" horiz-adv-x="524" unicode="è" d="M310 599h-51l-113 131q12 21 43 21q29 0 48 -15zM389 323q-3 171 -123 171q-65 0 -100 -56t-35 -150v-5zM474 285l-339 -50q7 -85 49 -133t117 -49q78 0 131 32l23 -57q-66 -38 -163 -38q-114 0 -178 74t-64 207q0 128 58 203t160 75q98 0 152 -64t54 -190v-10z"/>
<glyph glyph-name="eacute" horiz-adv-x="524" unicode="é" d="M391 730l-113 -131h-51l73 137q20 15 48 15q31 0 43 -21zM389 323q-3 171 -123 171q-65 0 -100 -56t-35 -150v-5zM474 285l-339 -50q7 -85 49 -133t117 -49q78 0 131 32l23 -57q-66 -38 -163 -38q-114 0 -178 74t-64 207q0 128 58 203t160 75q98 0 152 -64t54 -190v-10z "/>
<glyph glyph-name="ecircumflex" horiz-adv-x="524" unicode="ê" d="M396 619l-30 -26l-97 82l-97 -82l-30 26l93 100q13 15 34 15t34 -15zM389 323q-3 171 -123 171q-65 0 -100 -56t-35 -150v-5zM474 285l-339 -50q7 -85 49 -133t117 -49q78 0 131 32l23 -57q-66 -38 -163 -38q-114 0 -178 74t-64 207q0 128 58 203t160 75q98 0 152 -64 t54 -190v-10z"/>
<glyph glyph-name="edieresis" horiz-adv-x="524" unicode="ë" d="M393 654q0 -18 -13 -31t-31 -13t-31 13t-13 31t13 31t31 13t31 -13t13 -31zM233 654q0 -18 -13 -31t-31 -13t-31 13t-13 31t13 31t31 13t31 -13t13 -31zM389 323q-3 171 -123 171q-65 0 -100 -56t-35 -150v-5zM474 285l-339 -50q7 -85 49 -133t117 -49q78 0 131 32 l23 -57q-66 -38 -163 -38q-114 0 -178 74t-64 207q0 128 58 203t160 75q98 0 152 -64t54 -190v-10z"/>
<glyph glyph-name="igrave" horiz-adv-x="242" unicode="ì" d="M170 598h-51l-113 131q12 21 43 21q29 0 48 -15zM165 0h-88v539h88v-539z"/>
<glyph glyph-name="iacute" horiz-adv-x="242" unicode="í" d="M236 729l-113 -131h-51l73 137q19 15 48 15q31 0 43 -21zM165 0h-88v539h88v-539z"/>
<glyph glyph-name="icircumflex" horiz-adv-x="242" unicode="î" d="M248 619l-30 -26l-97 82l-97 -82l-30 26l93 100q13 15 34 15t34 -15zM165 0h-88v539h88v-539z"/>
<glyph glyph-name="idieresis" horiz-adv-x="242" unicode="ï" d="M245 654q0 -18 -13 -31t-31 -13t-31 13t-13 31t13 31t31 13t31 -13t13 -31zM85 654q0 -18 -13 -31t-31 -13t-31 13t-13 31t13 31t31 13t31 -13t13 -31zM165 0h-88v539h88v-539z"/>
<glyph glyph-name="eth" horiz-adv-x="526" unicode="ð" d="M388 269q0 111 -36 207q-30 12 -65 12q-73 0 -111 -64t-38 -162q0 -97 31 -155t94 -58q45 0 75 33q30 34 40 80t10 107zM476 269q0 -127 -53 -203t-161 -76q-102 0 -157 72t-55 200q0 119 60 197t161 78q35 0 59 -8q-29 60 -79 116l-102 -62l-26 38l93 60l-74 74l56 43 l80 -81l93 58l29 -42l-84 -53q160 -178 160 -411z"/>
<glyph glyph-name="ntilde" horiz-adv-x="534" unicode="ñ" d="M391 685q-14 -81 -77 -81q-23 0 -53 20t-48 21q-32 0 -40 -39l-40 13q14 80 77 80q24 -1 54 -21t48 -20q30 0 39 40zM463 0h-88v372q0 62 -28 92t-93 29q-53 0 -95 -18v-475h-88v511q83 38 183 38q209 0 209 -177v-372z"/>
<glyph glyph-name="ograve" horiz-adv-x="526" unicode="ò" d="M303 599h-51l-113 131q12 21 43 21q28 0 48 -15zM388 272q0 99 -30 160t-95 61t-95 -61t-30 -160q0 -100 30 -162t95 -61q65 -1 95 61t30 162zM476 270q0 -128 -54 -204t-159 -76t-159 76t-54 204q0 127 54 203t159 76t159 -76t54 -203z"/>
<glyph glyph-name="oacute" horiz-adv-x="526" unicode="ó" d="M387 730l-113 -131h-51l73 137q20 15 48 15q31 0 43 -21zM388 272q0 99 -30 160t-95 61t-95 -61t-30 -160q0 -100 30 -162t95 -61q65 -1 95 61t30 162zM476 270q0 -128 -54 -204t-159 -76t-159 76t-54 204q0 127 54 203t159 76t159 -76t54 -203z"/>
<glyph glyph-name="ocircumflex" horiz-adv-x="526" unicode="ô" d="M390 619l-30 -26l-97 82l-97 -82l-30 26l93 100q13 15 34 15t34 -15zM388 272q0 99 -30 160t-95 61t-95 -61t-30 -160q0 -100 30 -162t95 -61q65 -1 95 61t30 162zM476 270q0 -128 -54 -204t-159 -76t-159 76t-54 204q0 127 54 203t159 76t159 -76t54 -203z"/>
<glyph glyph-name="otilde" horiz-adv-x="526" unicode="õ" d="M392 685q-14 -81 -77 -81q-23 0 -53 20t-48 21q-32 0 -40 -39l-40 13q14 80 77 80q23 -1 53 -21t49 -20q30 0 39 40zM388 272q0 99 -30 160t-95 61t-95 -61t-30 -160q0 -100 30 -162t95 -61q65 -1 95 61t30 162zM476 270q0 -128 -54 -204t-159 -76t-159 76t-54 204 q0 127 54 203t159 76t159 -76t54 -203z"/>
<glyph glyph-name="odieresis" horiz-adv-x="526" unicode="ö" d="M387 654q0 -18 -13 -31t-31 -13t-31 13t-13 31t13 31t31 13t31 -13t13 -31zM227 654q0 -18 -13 -31t-31 -13t-31 13t-13 31t13 31t31 13t31 -13t13 -31zM388 272q0 99 -30 160t-95 61t-95 -61t-30 -160q0 -100 30 -162t95 -61q65 -1 95 61t30 162zM476 270 q0 -128 -54 -204t-159 -76t-159 76t-54 204q0 127 54 203t159 76t159 -76t54 -203z"/>
<glyph glyph-name="divide" d="M310 173q0 -21 -15 -36t-36 -15t-36 15t-15 36t15 36t36 15t36 -15t15 -36zM456 307h-394v54h394v-54zM310 495q0 -21 -15 -36t-36 -15t-36 15t-15 36t15 36t36 15t36 -15t15 -36z" unicode="÷"/>
<glyph glyph-name="oslash" horiz-adv-x="526" unicode="ø" d="M393 272q0 83 -20 137l-202 -313q33 -51 92 -51q47 1 77 33t42 80t11 114zM356 445q-33 53 -93 53q-47 0 -77 -32t-42 -81q-12 -48 -11 -113q0 -82 21 -140zM476 270q0 -128 -54 -204t-159 -76q-80 0 -131 45l-47 -73l-29 18l52 81q-58 74 -58 209q0 127 54 203t159 76 q80 0 131 -45l47 73l29 -18l-52 -81q58 -74 58 -208z"/>
<glyph glyph-name="ugrave" horiz-adv-x="524" unicode="ù" d="M315 598h-51l-113 131q12 21 43 21q28 0 48 -15zM453 30q-75 -40 -185 -40q-197 0 -197 176v373h88v-376q0 -113 110 -113q61 0 96 18v471h88v-509z"/>
<glyph glyph-name="uacute" horiz-adv-x="524" unicode="ú" d="M387 729l-113 -131h-51l73 137q20 15 48 15q31 0 43 -21zM453 30q-75 -40 -185 -40q-197 0 -197 176v373h88v-376q0 -113 110 -113q61 0 96 18v471h88v-509z"/>
<glyph glyph-name="ucircumflex" horiz-adv-x="524" unicode="û" d="M389 619l-30 -26l-97 82l-97 -82l-30 26l93 100q14 15 34 15t34 -15zM453 30q-75 -40 -185 -40q-197 0 -197 176v373h88v-376q0 -113 110 -113q61 0 96 18v471h88v-509z"/>
<glyph glyph-name="udieresis" horiz-adv-x="524" unicode="ü" d="M386 654q0 -18 -13 -31t-31 -13t-31 13t-13 31t13 31t31 13t31 -13t13 -31zM226 654q0 -18 -13 -31t-31 -13t-31 13t-13 31t13 31t31 13t31 -13t13 -31zM453 30q-75 -40 -185 -40q-197 0 -197 176v373h88v-376q0 -113 110 -113q61 0 96 18v471h88v-509z"/>
<glyph glyph-name="yacute" horiz-adv-x="492" unicode="ý" d="M372 730l-113 -131h-51l73 137q19 15 48 15q31 0 43 -21zM465 539l-250 -754h-94l89 215l-181 539h94l113 -391q10 -34 12 -67h2q4 30 15 67l117 391h83z"/>
<glyph glyph-name="thorn" horiz-adv-x="528" unicode="þ" d="M390 275q0 99 -37 159t-108 60q-44 0 -86 -20v-413q29 -13 75 -13q156 0 156 227zM478 280q0 -131 -62 -210t-172 -79q-48 0 -85 13v-219h-87v1000h87v-263q46 24 108 24q95 0 153 -72t58 -194z"/>
<glyph glyph-name="OE" horiz-adv-x="758" unicode="Œ" d="M400 61v569q-32 10 -72 10q-94 0 -138 -82t-44 -213q0 -129 44 -211t138 -82q44 0 72 9zM712 0h-304q-35 -10 -83 -10q-135 0 -203 98t-68 256t68 256t203 98q48 0 83 -10h304v-62h-226v-240h205v-61h-205v-263h226v-62z"/>
<glyph glyph-name="oe" horiz-adv-x="846" unicode="œ" d="M386 272q0 99 -30 160t-95 61t-95 -61t-30 -160q0 -100 30 -162t95 -61q65 -1 95 61t30 162zM713 323q-3 171 -123 171q-65 0 -100 -56t-35 -150v-5zM796 285l-337 -50q6 -85 48 -133t118 -49q75 0 130 32l23 -57q-65 -38 -160 -38q-68 0 -118 33t-76 92 q-48 -125 -165 -125q-101 0 -155 76t-54 204t53 204t156 75q115 0 165 -117q24 58 70 88t99 29q99 0 151 -65t52 -193v-6z"/>
<glyph glyph-name="Scaron" horiz-adv-x="484" unicode="Š" d="M373 866l-93 -100q-14 -15 -34 -15t-34 15l-93 100l30 26l97 -81l97 81zM431 181q0 -83 -60 -137t-158 -54q-105 0 -169 38l27 62q54 -32 135 -32q62 0 96 33t35 85q1 46 -29 78t-72 52t-83 43t-71 65t-30 105q0 81 57 130t149 49q83 0 147 -38l-24 -56q-50 31 -116 31 q-58 0 -90 -29t-32 -81q0 -33 16 -59q15 -26 41 -42t56 -31t62 -32q30 -17 56 -39t41 -58q16 -36 16 -83z"/>
<glyph glyph-name="scaron" horiz-adv-x="418" unicode="š" d="M338 717l-93 -100q-13 -15 -34 -15t-34 15l-93 100l30 26l97 -81l97 81zM370 149q0 -67 -52 -113t-132 -46q-90 0 -145 37l25 56q50 -31 111 -31q47 0 75 26t29 67q1 35 -23 59t-58 38t-66 30q-34 16 -58 48t-23 82q1 63 47 105t119 42q79 0 135 -37l-23 -52 q-48 31 -100 31q-43 0 -67 -24t-24 -61q0 -25 12 -43q12 -17 34 -29q20 -12 44 -22t50 -24q24 -12 44 -28t34 -46q12 -28 12 -65z"/>
<glyph glyph-name="Ydieresis" horiz-adv-x="501" unicode="Ÿ" d="M380 803q0 -18 -13 -31t-31 -13t-31 13t-13 31t13 31t31 13t31 -13t13 -31zM220 803q0 -18 -13 -31t-31 -13t-31 13t-13 31t13 31t31 13t31 -13t13 -31zM486 688l-189 -383v-305h-92v305l-188 383h99l138 -311h2l142 311h88z"/>
<glyph glyph-name="circumflex" horiz-adv-x="242" unicode="ˆ" d="M248 620l-30 -26l-97 82l-97 -82l-30 26l93 100q13 15 34 15t34 -15z"/>
<glyph glyph-name="tilde" horiz-adv-x="242" unicode="˜" d="M250 685q-14 -81 -77 -81q-23 0 -53 20t-48 21q-32 0 -40 -39l-40 13q14 80 77 80q23 -1 53 -21t49 -20q30 0 39 40z"/>
<glyph glyph-name="uni0394" horiz-adv-x="590" unicode="Δ" d="M458 58l-145 465q-9 29 -20 89h-2q-9 -52 -21 -89l-147 -465h335zM571 0h-552l232 688h87z"/>
<glyph glyph-name="uni03BC" horiz-adv-x="524" unicode="μ" d="M453 30q-71 -40 -175 -40q-71 0 -119 29v-234h-88v754h88v-458q45 -32 108 -32q62 0 98 19v471h88v-509z"/>
<glyph glyph-name="pi" horiz-adv-x="590" unicode="π" d="M554 482h-78v-482h-87v482h-175l-65 -482h-89l68 482h-89v57h515v-57z"/>
<glyph glyph-name="endash" horiz-adv-x="376" unicode="–" d="M376 301h-376v66h376v-66z"/>
<glyph glyph-name="emdash" horiz-adv-x="752" unicode="—" d="M752 303h-752v62h752v-62z"/>
<glyph glyph-name="quoteleft" horiz-adv-x="257" unicode="‘" d="M213 785l-77 -227q-17 -27 -52 -27q-31 0 -38 27l117 227h50z"/>
<glyph glyph-name="quotesinglbase" horiz-adv-x="257" unicode="‚" d="M211 82l-117 -227h-50l78 227q17 27 52 27q30 0 37 -27z"/>
<glyph glyph-name="quotedblleft" horiz-adv-x="432" unicode="“" d="M213 785l-77 -227q-17 -27 -52 -27q-31 0 -38 27l117 227h50zM388 785l-78 -227q-17 -27 -52 -27q-30 0 -37 27l117 227h50z"/>
<glyph glyph-name="quotedblright" horiz-adv-x="432" unicode="”" d="M211 765l-117 -227h-50l78 227q17 27 52 27q30 0 37 -27zM386 765l-117 -227h-50l77 227q17 27 52 27q31 0 38 -27z"/>
<glyph glyph-name="dagger" horiz-adv-x="564" unicode="†" d="M510 457l-191 10l10 -682h-94l10 682l-191 -10v88l191 -10l-10 250h94l-10 -250l191 10v-88z"/>
<glyph glyph-name="daggerdbl" horiz-adv-x="564" unicode="‡" d="M510 167l-191 9l10 -391h-94l10 391l-191 -9v86l191 -10v225l-191 -10v87l191 -10l-10 250h94l-10 -250l191 10v-87l-191 10v-225l191 10v-86z"/>
<glyph glyph-name="ellipsis" horiz-adv-x="750" unicode="…" d="M682 51q0 -23 -17 -40t-40 -17t-40 17t-17 40t17 40t40 17t40 -17t17 -40zM432 51q0 -23 -17 -40t-40 -17t-40 17t-17 40t17 40t40 17t40 -17t17 -40zM182 51q0 -23 -17 -40t-40 -17t-40 17t-17 40t17 40t40 17t40 -17t17 -40z"/>
<glyph glyph-name="perthousand" horiz-adv-x="1148" unicode="‰" d="M265 504q0 65 -17 109t-55 44t-55 -44t-17 -109q0 -66 17 -110t55 -44t55 44t17 110zM684 188q0 65 -17 109t-55 44t-55 -44t-17 -109q0 -66 17 -110t55 -44t55 44t17 110zM1027 188q0 65 -17 109t-55 44t-55 -44t-17 -109q0 -66 17 -110t55 -44t55 44t17 110zM328 502 q0 -80 -35 -138t-100 -58t-100 58t-35 138t35 138t100 58t100 -58t35 -138zM545 680l-237 -688l-49 16l237 688zM747 186q0 -80 -35 -138t-100 -58t-100 58t-35 138t35 138t100 58t100 -58t35 -138zM1090 186q0 -80 -35 -138t-100 -58t-100 58t-35 138t35 138t100 58 t100 -58t35 -138z"/>
<glyph glyph-name="guilsinglleft" horiz-adv-x="296" unicode="‹" d="M234 139l-52 -31l-130 226l130 226l52 -31l-113 -195z"/>
<glyph glyph-name="guilsinglright" horiz-adv-x="296" unicode="›" d="M244 334l-130 -226l-52 31l113 195l-113 195l52 31z"/>
<glyph glyph-name="fraction" horiz-adv-x="131" unicode="⁄" d="M241 677l-315 -689l-49 23l315 689z"/>
<glyph glyph-name="Euro" horiz-adv-x="638" unicode="€" d="M589 26q-54 -39 -145 -39q-120 0 -190 74t-91 190h-103v44h97q-2 32 -2 49q0 37 4 66h-99v44h107q24 110 94 178t183 69q90 0 145 -38l-23 -54q-47 28 -109 28q-83 -1 -132 -51t-68 -132h246v-44h-253q-4 -28 -4 -65q0 -33 2 -50h255v-44h-248q17 -87 67 -141t135 -55 q63 0 108 27z"/>
<glyph glyph-name="trademark" horiz-adv-x="768" unicode="™" d="M274 643h-90v-355h-65v355h-89v45h244v-45zM720 288h-62l-29 286q-3 21 -3 46h-2q-5 -27 -11 -46l-86 -286h-42l-86 286q-7 21 -12 46h-2q0 -30 -2 -46l-31 -286h-55l49 400h69l82 -273q8 -26 11 -50h2q4 30 10 50l82 273h69z"/>
<glyph glyph-name="arrowleft" horiz-adv-x="940" unicode="←" d="M944 303h-753l196 -196l-45 -43l-270 270l270 270l45 -44l-196 -195h753v-62z"/>
<glyph glyph-name="arrowup" horiz-adv-x="688" unicode="↑" d="M616 523l-43 -44l-195 195v-674h-68v674l-195 -195l-43 44l272 272z"/>
<glyph glyph-name="arrowright" horiz-adv-x="940" unicode="→" d="M868 334l-270 -270l-45 43l196 196h-753v62h753l-196 195l45 44z"/>
<glyph glyph-name="arrowdown" horiz-adv-x="688" unicode="↓" d="M616 262l-272 -272l-272 272l43 44l195 -195v674h68v-674l195 195z"/>
<glyph glyph-name="partialdiff" horiz-adv-x="528" unicode="∂" d="M389 248q0 56 -8 96q-47 18 -93 18q-150 0 -150 -158q0 -66 30 -110t90 -45q65 0 98 52t33 147zM473 250q0 -122 -56 -191t-157 -69q-100 0 -154 62t-53 151q0 98 59 153t161 55q50 0 96 -18q-36 97 -101 155t-165 90l20 59q157 -43 253 -159t97 -288z"/>
<glyph glyph-name="product" horiz-adv-x="742" unicode="∏" d="M695 626h-103v-841h-92v841h-258v-841h-92v841h-103v62h648v-62z"/>
<glyph glyph-name="summation" horiz-adv-x="528" unicode="∑" d="M473 -215h-427l238 471l-237 432h420v-69h-289l201 -363l-205 -399h299v-72z"/>
<glyph glyph-name="minus" d="M456 303h-394v62h394v-62z" unicode="−"/>
<glyph glyph-name="radical" horiz-adv-x="528" unicode="√" d="M499 785l-176 -785h-80l-134 449h-83v53h151l102 -395h2l139 678h79z"/>
<glyph glyph-name="infinity" horiz-adv-x="750" unicode="∞" d="M341 335q-33 59 -61 89t-69 29q-46 0 -73 -31t-27 -84q0 -52 27 -84t73 -31q41 0 69 28t61 84zM638 339q0 53 -26 85t-73 31q-43 0 -71 -28t-59 -84q34 -60 62 -89t68 -29q47 1 73 31t26 83zM695 339q0 -78 -43 -129t-113 -51q-55 0 -93 33t-73 93q-35 -62 -71 -94 t-90 -32q-70 0 -114 51t-43 129q-1 78 43 129t114 51q54 -1 90 -33t74 -94q35 61 72 94t91 33q70 0 113 -51t43 -129z"/>
<glyph glyph-name="approxequal" d="M456 224q-39 -46 -103 -46q-34 0 -94 32t-94 33q-63 0 -103 -47v65q37 45 103 45q34 0 94 -32t94 -32q65 0 103 46v-64zM456 407q-39 -46 -103 -46q-34 1 -94 33t-94 32q-64 0 -103 -46v64q37 45 103 45q34 0 94 -32t94 -32q64 0 103 47v-65z" unicode="≈"/>
<glyph glyph-name="notequal" d="M456 211h-223l-51 -123l-43 19l44 104h-121v62h146l51 121h-197v62h223l51 121l42 -19l-43 -102h121v-62h-147l-50 -121h197v-62z" unicode="≠"/>
<glyph glyph-name="lessequal" d="M456 0h-394v59h394v-59zM456 151l-394 169v55l394 169v-67l-317 -129v-2l317 -128v-67z" unicode="≤"/>
<glyph glyph-name="greaterequal" d="M456 0h-394v59h394v-59zM456 320l-394 -169v67l317 128v2l-317 129v67l394 -169v-55z" unicode="≥"/>
<glyph glyph-name="dotmath" d="M316 333q0 -23 -17 -40t-40 -17t-40 17t-17 40t17 40t40 17t40 -17t17 -40z" unicode="⋅"/>
<glyph glyph-name="lozenge" horiz-adv-x="636" unicode="◊" d="M505 344l-187 246l-188 -246l188 -244zM588 344l-270 -354l-270 354l270 354z"/>
</font>
</defs>
</svg>
